<svg width="22" height="23" viewBox="0 0 22 23" fill="none" xmlns="http://www.w3.org/2000/svg">
    <path d="M1 5.5C1 3.29086 2.79086 1.5 5 1.5H17C19.2091 1.5 21 3.29086 21 5.5V17.5C21 19.7091 19.2091 21.5 17 21.5H5C2.79086 21.5 1 19.7091 1 17.5V5.5Z" fill="white"/>
    <path d="M5 1C2.51472 1 0.5 3.01472 0.5 5.5V17.5C0.5 19.9853 2.51472 22 5 22H17C19.4853 22 21.5 19.9853 21.5 17.5V5.5C21.5 3.01472 19.4853 1 17 1H5Z" stroke="#555500" stroke-opacity="0.0117647"/>
    <path d="M5 16H8V13H11V10H14V7H17" stroke="#FFC53D"/>
</svg>
