<?xml version="1.0" encoding="UTF-8"?><svg id="logosandtypes_com" xmlns="http://www.w3.org/2000/svg" xmlns:xlink="http://www.w3.org/1999/xlink" viewBox="0 0 150 150"><defs><style>.cls-1{fill:url(#linear-gradient-2);}.cls-2{fill:none;}.cls-3{fill:url(#linear-gradient);}</style><linearGradient id="linear-gradient" x1="75.6" y1="142.15" x2="75.6" y2="9.41" gradientTransform="translate(0 151.28) scale(1 -1)" gradientUnits="userSpaceOnUse"><stop offset="0" stop-color="#f77423"/><stop offset="1" stop-color="#fbce5b"/></linearGradient><linearGradient id="linear-gradient-2" x1="70.8" y1="9.46" x2="70.8" y2="63.92" xlink:href="#linear-gradient"/></defs><path class="cls-2" d="M0,0H150V150H0V0Z"/><path class="cls-3" d="M128.85,120.08h0c-.01,2.19-.96,4.41-2.66,5.82h0l-.35,.25v.03c-21.27,14.88-49.19,19.58-74.12,12.36-8.83-2.51-17.31-6.4-24.89-11.53-1.28-.78-2.48-1.68-3.2-2.99h0c-1.59-2.57-1.41-6.06,.39-8.49,4.64-7.76,10.52-14.74,17.32-20.68h0c1.85-1.67,3.87-3.22,5.88-4.75h0c6.13-5.15,14.49-2.67,18.51,3.79,3.77,4.6,8.02,8.77,12.66,12.49h.03c5.47,5.81,13.86-1.86,8.53-7.71,0,0-3.2-3.2-3.2-3.2-10.45-10.44-47.88-47.89-58.96-58.96l.04-.03c-1.57-1.46-2.47-3.5-2.5-5.64h0c-.04-2.16,.97-4.17,2.48-5.66h0l.17-.13h0c.09-.06,.2-.13,.34-.24h0c29.64-20.63,69.55-20.95,99.42-.6,2.42,1.37,4,4.03,3.9,6.83-.06,1.56-.56,3.12-1.47,4.4-5.85,9.74-13.65,18.28-22.76,25.06-4.12,3.9-11.17,4.26-15.19,.02-4.45-4.39-16.4-15.89-16.4-15.89l-.7-.59c-3.04-3.03-8.6-1.12-9.39,3.03-.39,1.89,.19,3.85,1.56,5.22l62.07,62.18c1.57,1.46,2.47,3.49,2.49,5.63Z"/><path class="cls-1" d="M74.68,103.24c-3.85-3.45-7.38-7.25-10.53-11.35-.76-.99-1.7-1.84-2.74-2.52-4.36-3.02-10.44-2.62-14.39,.93-7.94,5.92-22.65,20.03-24.47,29.76-.05,2.93,1.74,5.58,4.29,6.94,26.98,18.45,63.95,19.74,92.24,3.43-16.38-6.19-31.44-15.42-44.39-27.2Z"/></svg>